# xmcd CD database file
#
# Track frame offsets:
#	150
#	20145
#	39915
#	64301
#	89593
#	107439
#	129179
#	147774
#	164755
#	184263
#	210415
#
# Disc length: 3018 seconds
#
# Revision: 2
# Processed by: cddbd v1.5.2PL0 Copyright (c) Steve Scherf et al.
# Submitted via: CDex 1.70beta2
#
DISCID=980bc80b
DTITLE=Christy Nockels, 1973- - Life Light Up
DYEAR=2009
DGENRE=CCM 2001-2010
TTITLE0=No Not One - Brandon Heath, Christy Nockels
TTITLE1=Life Light Up - Christy Nockels, Nathan Nockels
TTITLE2=Choose - Christy Nockels
TTITLE3=Song of the Beautiful - Christy Nockels
TTITLE4=You Are Able - Christy Nockels, Nathan Nockels
TTITLE5=A Mighty Fortress - Christy Nockels, Nathan Nockels
TTITLE6=My Master - Christy Nockels
TTITLE7=In Your Hands - Molley Moody
TTITLE8=Marvelous Light
TTITLE9=Hosanna - Brooke Fraser
TTITLE10=By Our Love - Christy Nockels
EXTD=www.gerth.de, Art.-Nr.: 104791 YEAR: 2009
EXTT0=
EXTT1=
EXTT2=
EXTT3=
EXTT4=
EXTT5=
EXTT6=
EXTT7=
EXTT8=
EXTT9=
EXTT10=
PLAYORDER=
